<svg width="128" height="128" viewBox="0 0 128 128" xmlns="http://www.w3.org/2000/svg" role="img" aria-label="Settex">
  <defs>
    <linearGradient id="bg" x1="0" y1="0" x2="1" y2="1">
      <stop offset="0" stop-color="#c9603f"/>
      <stop offset="1" stop-color="#a83c22"/>
    </linearGradient>
    <linearGradient id="sheen" x1="0" y1="0" x2="0" y2="1">
      <stop offset="0" stop-color="#ffffff" stop-opacity="0.18"/>
      <stop offset="0.5" stop-color="#ffffff" stop-opacity="0"/>
    </linearGradient>
  </defs>

  <!-- tile -->
  <rect x="4" y="4" width="120" height="120" rx="28" fill="url(#bg)"/>
  <rect x="4" y="4" width="120" height="120" rx="28" fill="url(#sheen)"/>

  <!-- braces -->
  <g fill="none" stroke="#fbe9df" stroke-width="7" stroke-linecap="round" stroke-linejoin="round">
    <path d="M44 34 C34 34 34 42 34 51 C34 58 30 64 24 64 C30 64 34 70 34 77 C34 86 34 94 44 94"/>
    <path d="M84 34 C94 34 94 42 94 51 C94 58 98 64 104 64 C98 64 94 70 94 77 C94 86 94 94 84 94"/>
  </g>

  <!-- stacked config layers (environment overlays) -->
  <g fill="#fbe9df">
    <rect x="49" y="46" width="30" height="9" rx="4.5" opacity="0.55"/>
    <rect x="46" y="59.5" width="36" height="9" rx="4.5" opacity="0.8"/>
    <rect x="49" y="73" width="30" height="9" rx="4.5"/>
  </g>
</svg>
